<svg xmlns="http://www.w3.org/2000/svg" xmlns:xlink="http://www.w3.org/1999/xlink" version="1.1" width="256" height="256" viewBox="0 0 256 256" xml:space="preserve">

<defs>
</defs>
<g style="stroke: none; stroke-width: 0; stroke-dasharray: none; stroke-linecap: butt; stroke-linejoin: miter; stroke-miterlimit: 10; fill: none; fill-rule: nonzero; opacity: 1;" transform="translate(1.4065934065934016 1.4065934065934016) scale(2.81 2.81)" >
	<path d="M 26.317 90 c -0.194 0 -0.389 -0.057 -0.56 -0.172 c -9.483 -6.414 -15.145 -17.068 -15.145 -28.502 c 0 -0.086 0.011 -0.169 0.031 -0.249 c 0.055 -4.639 1.629 -9.037 3.294 -13.688 c 2.756 -7.701 5.606 -15.663 1.942 -25.826 c -0.129 -0.359 -0.043 -0.76 0.222 -1.035 c 0.266 -0.274 0.663 -0.375 1.026 -0.256 c 5.868 1.896 13.062 5.027 17.421 12.503 c 9.643 -9.009 8.694 -20.473 6.187 -31.555 c -0.093 -0.412 0.083 -0.838 0.439 -1.065 c 0.356 -0.226 0.818 -0.205 1.15 0.055 c 9.945 7.743 15.062 17.905 15.256 30.259 c 2.983 -4.892 7.388 -7.686 11.504 -9.791 c 0.354 -0.182 0.784 -0.135 1.091 0.118 c 0.308 0.253 0.436 0.665 0.325 1.048 c -3.187 11.102 0.826 19.008 4.366 25.984 c 2.267 4.468 4.41 8.691 4.486 13.248 c 0.021 0.079 0.031 0.163 0.031 0.249 c 0 11.434 -5.661 22.088 -15.144 28.502 c -0.4 0.271 -0.937 0.218 -1.276 -0.13 c -0.338 -0.346 -0.379 -0.885 -0.099 -1.278 c 2.626 -3.688 4.032 -8.008 4.071 -12.507 c -0.013 -0.063 -0.02 -0.128 -0.02 -0.194 c 0 -2.957 -1.052 -5.896 -2.166 -9.008 c -1.734 -4.848 -3.682 -10.286 -1.938 -16.939 c -4.733 1.828 -7.72 4.305 -9.561 7.878 c -0.14 0.271 -0.396 0.465 -0.697 0.523 c -0.302 0.06 -0.611 -0.023 -0.843 -0.223 c -4.192 -3.603 -3.787 -7.976 -3.396 -12.206 c 0.251 -2.708 0.492 -5.308 -0.314 -7.845 c -0.747 2.618 -2.585 4.998 -4.495 7.471 c -2.84 3.677 -5.776 7.48 -5.35 12.447 c 0.043 0.505 -0.297 0.963 -0.793 1.065 c -0.5 0.1 -0.991 -0.182 -1.151 -0.663 c -1.31 -3.926 -3.825 -6.189 -6.588 -7.854 c 1.306 7.089 -1.311 12.244 -3.646 16.844 c -1.557 3.067 -2.901 5.717 -2.901 8.51 c 0 0.067 -0.007 0.134 -0.02 0.198 c 0.04 4.497 1.446 8.816 4.072 12.503 c 0.281 0.394 0.239 0.933 -0.099 1.278 C 26.839 89.897 26.58 90 26.317 90 z M 79.357 61.325 h 0.01 H 79.357 z" style="stroke: none; stroke-width: 1; stroke-dasharray: none; stroke-linecap: butt; stroke-linejoin: miter; stroke-miterlimit: 10; fill: rgb(249,70,70); fill-rule: nonzero; opacity: 1;" transform=" matrix(1 0 0 1 0 0) " stroke-linecap="round" />
</g>
</svg>